<?xml version="1.0" encoding="utf-8"?>
<!-- Generator: Adobe Illustrator 22.1.0, SVG Export Plug-In . SVG Version: 6.00 Build 0)  -->
<svg version="1.1" id="Layer_1" xmlns:sketch="http://www.bohemiancoding.com/sketch/ns"
	 xmlns="http://www.w3.org/2000/svg" xmlns:xlink="http://www.w3.org/1999/xlink" x="0px" y="0px" viewBox="0 0 80.3 32"
	 style="enable-background:new 0 0 80.3 32;" xml:space="preserve">
<style type="text/css">
	.st0{fill:#7056BF;}
	.st1{fill:#FFFFFF;stroke:#FFFFFF;stroke-miterlimit:10;}
	.st2{enable-background:new    ;}
	.st3{fill:#FFFFFF;}
</style>
<path class="st0" d="M77.4,32H2.8C1.3,32,0,30.7,0,29.2V2.8C0,1.3,1.3,0,2.8,0h74.6c1.6,0,2.8,1.3,2.8,2.8v26.3
	C80.3,30.7,79,32,77.4,32z"/>
<g>
	<path class="st1" d="M17,17.7c0-1,0-2.1,0-3.2c0-1.7,0-3.4,0-5.1c0-0.4-0.1-0.9,0.5-0.9S18,9,18,9.4c0,2.5,0,5,0.1,7.5
		c0,0.3-0.1,0.6,0.1,0.9c0.8-0.5,1.3-1.3,2-1.9c0.4-0.3,0.7-0.7,1.1-1.1c0.3-0.3,0.6-0.6,1-0.2c0.4,0.4,0,0.7-0.3,1c-1,1-2,2-3,3
		c-1.5,1.5-1.1,1.5-2.6,0c-1.1-1-2.1-2.1-3.2-3.1c-0.3-0.3-0.6-0.6-0.2-0.9c0.3-0.3,0.6-0.1,0.9,0.2c0.9,0.9,1.9,1.9,2.8,2.8
		C16.7,17.7,16.7,17.8,17,17.7z"/>
	<path class="st1" d="M17.4,23.5c-2.2,0-4.3,0-6.5,0c-1,0-1.4-0.4-1.4-1.4c0-0.9,0-1.9,0-2.8c0-0.4,0.1-0.7,0.5-0.7s0.5,0.3,0.5,0.7
		c0,0.9,0,1.7,0,2.6c0,0.5,0.2,0.7,0.7,0.7c4.2,0,8.5,0,12.7,0c0.5,0,0.6-0.3,0.6-0.7c0-0.8,0-1.7,0-2.5c0-0.4,0-0.8,0.5-0.8
		s0.5,0.4,0.5,0.8c0,0.9,0,1.9,0,2.8s-0.4,1.3-1.3,1.3C21.9,23.5,19.6,23.5,17.4,23.5z"/>
</g>
<g class="st2">
	<path class="st3" d="M36.4,21h-1.1v-9.8h1.1V21z"/>
	<path class="st3" d="M44.6,21h-1.1v-4c0-1.5-0.5-2.2-1.6-2.2c-0.6,0-1,0.2-1.4,0.6c-0.4,0.4-0.6,1-0.6,1.6v4h-1.1v-7h1.1v1.2h0
		c0.5-0.9,1.3-1.3,2.3-1.3c0.8,0,1.4,0.2,1.8,0.7c0.4,0.5,0.6,1.2,0.6,2.1V21z"/>
	<path class="st3" d="M46.3,20.7v-1.2c0.6,0.5,1.3,0.7,2,0.7c1,0,1.5-0.3,1.5-1c0-0.2,0-0.3-0.1-0.5c-0.1-0.1-0.2-0.2-0.3-0.3
		c-0.1-0.1-0.3-0.2-0.5-0.3c-0.2-0.1-0.4-0.2-0.6-0.3c-0.3-0.1-0.6-0.2-0.8-0.4c-0.2-0.1-0.4-0.3-0.6-0.4c-0.2-0.2-0.3-0.3-0.4-0.5
		c-0.1-0.2-0.1-0.4-0.1-0.7c0-0.3,0.1-0.6,0.2-0.9c0.2-0.3,0.4-0.5,0.6-0.6c0.3-0.2,0.5-0.3,0.9-0.4s0.7-0.1,1-0.1
		c0.6,0,1.1,0.1,1.6,0.3v1.1c-0.5-0.3-1.1-0.5-1.8-0.5c-0.2,0-0.4,0-0.6,0.1c-0.2,0-0.3,0.1-0.4,0.2c-0.1,0.1-0.2,0.2-0.3,0.3
		c-0.1,0.1-0.1,0.3-0.1,0.4c0,0.2,0,0.3,0.1,0.5c0.1,0.1,0.2,0.2,0.3,0.3c0.1,0.1,0.3,0.2,0.5,0.3c0.2,0.1,0.4,0.2,0.6,0.3
		c0.3,0.1,0.6,0.2,0.8,0.4s0.5,0.3,0.6,0.4c0.2,0.2,0.3,0.3,0.4,0.5c0.1,0.2,0.1,0.4,0.1,0.7c0,0.3-0.1,0.6-0.2,0.9
		c-0.2,0.3-0.4,0.5-0.6,0.6c-0.3,0.2-0.5,0.3-0.9,0.4c-0.3,0.1-0.7,0.1-1,0.1C47.4,21.2,46.8,21,46.3,20.7z"/>
	<path class="st3" d="M55.9,20.9c-0.3,0.1-0.6,0.2-1,0.2c-1.2,0-1.8-0.7-1.8-2.1v-4.1h-1.2v-1H53v-1.7l1.1-0.4V14h1.8v1h-1.8v3.9
		c0,0.5,0.1,0.8,0.2,1c0.2,0.2,0.4,0.3,0.8,0.3c0.3,0,0.5-0.1,0.7-0.2V20.9z"/>
	<path class="st3" d="M62.4,21h-1.1v-1.1h0c-0.5,0.8-1.2,1.3-2.2,1.3c-0.7,0-1.2-0.2-1.6-0.6c-0.4-0.4-0.6-0.9-0.6-1.5
		c0-1.3,0.8-2.1,2.3-2.3l2.1-0.3c0-1.2-0.5-1.8-1.4-1.8c-0.8,0-1.6,0.3-2.3,0.9v-1.1c0.7-0.4,1.5-0.7,2.4-0.7c1.6,0,2.5,0.9,2.5,2.6
		V21z M61.3,17.5l-1.7,0.2c-0.5,0.1-0.9,0.2-1.2,0.4c-0.3,0.2-0.4,0.5-0.4,1c0,0.3,0.1,0.6,0.4,0.8c0.2,0.2,0.6,0.3,1,0.3
		c0.6,0,1-0.2,1.4-0.6c0.4-0.4,0.5-0.9,0.5-1.5V17.5z"/>
	<path class="st3" d="M65.6,21h-1.1V10.6h1.1V21z"/>
	<path class="st3" d="M69,21h-1.1V10.6H69V21z"/>
</g>
</svg>
